<svg data-v-423bf9ae="" xmlns="http://www.w3.org/2000/svg" viewBox="0 0 696 90" class="iconLeftSlogan"><!----><!----><!----><g data-v-423bf9ae="" id="2de04952-bb78-49e4-a2c6-c8cb982cf8c8" fill="#221057" transform="matrix(4.460966922317583,0,0,4.460966922317583,142.66725271357546,-14.944238287495786)"><path d="M3.15 9.34L6.43 9.41L6.43 8.55L3.15 8.64L3.15 4.90L6.71 4.98L6.89 6.58L7.46 6.58L7.55 4.20L0.66 4.20L0.66 4.63L1.78 4.82L1.78 13.38L0.66 13.57L0.66 14L7.69 14L7.74 11.58L7.22 11.58L6.85 13.24L3.15 13.30ZM12.67 7.63C13.43 7.63 13.93 7.97 13.93 7.97L13.93 11.21C13.93 11.90 13.97 12.49 13.99 12.61C13.54 12.91 12.94 13.10 12.43 13.10C11.12 13.10 10.46 11.96 10.46 10.36C10.46 8.69 11.24 7.63 12.67 7.63ZM15.23 3.42L14.95 3.35L12.80 3.56L12.80 3.99L13.93 4.10L13.93 7.24C13.93 7.24 13.43 6.86 12.52 6.86C10.42 6.86 9.10 8.36 9.10 10.88C9.10 12.60 10.14 14.14 11.76 14.14C12.87 14.14 13.45 13.64 13.97 13.17C14.08 13.86 14.55 14.14 15.12 14.14C15.75 14.14 16.18 13.82 16.18 13.82L16.18 13.44L15.75 13.44C15.33 13.44 15.23 13.19 15.23 12.84ZM23.83 7.83L23.88 7L23.60 6.93L21.39 7.14L21.39 7.57L22.53 7.69L22.53 11.21C22.53 11.90 22.58 12.63 22.58 12.63C22.08 12.88 21.52 13.10 20.80 13.10C19.71 13.10 19.36 12.29 19.36 11.48L19.36 7.41L19.42 7L19.14 6.93L16.93 7.14L16.93 7.57L18.06 7.69L18.06 11.63C18.06 13.12 18.90 14.14 20.23 14.14C21.20 14.14 21.95 13.68 22.57 13.17C22.68 13.86 23.14 14.14 23.72 14.14C24.35 14.14 24.78 13.82 24.78 13.82L24.78 13.44L24.35 13.44C23.93 13.44 23.83 13.19 23.83 12.84ZM29.92 13.17C30.03 13.86 30.49 14.14 31.07 14.14C31.70 14.14 32.13 13.82 32.13 13.82L32.13 13.44L31.70 13.44C31.28 13.44 31.18 13.19 31.18 12.84L31.18 9.48C31.18 7.78 30.53 6.86 28.87 6.86C27.41 6.86 26.32 7.60 26.32 7.60L26.32 8.08C26.32 8.08 27.44 7.76 28.41 7.76C29.68 7.76 29.90 8.34 29.90 9.37L29.90 10.12C29.50 10.12 28.66 10.14 28 10.25C26.50 10.51 25.90 11.30 25.90 12.38C25.90 13.31 26.54 14.07 27.69 14.07C28.70 14.07 29.39 13.66 29.92 13.17ZM28.31 13.20C27.55 13.20 27.17 12.78 27.17 12.18C27.17 11.49 27.61 11.06 28.32 10.88C29.13 10.67 29.88 10.68 29.88 10.68L29.88 11.68C29.88 12.28 29.92 12.67 29.92 12.67C29.47 12.94 28.99 13.20 28.31 13.20ZM35.48 8.44C35.88 8.16 36.40 7.92 36.88 7.92C37.49 7.92 37.74 8.33 38.35 8.58L38.89 7.56C38.32 7.32 38.05 6.86 37.34 6.86C36.64 6.86 35.97 7.45 35.48 7.94L35.53 7L35.25 6.93L33.10 7.13L33.10 7.56L34.23 7.67L34.23 13.40L33.11 13.57L33.11 14L36.93 14L36.93 13.57L35.53 13.40L35.53 9.84C35.53 9.09 35.48 8.44 35.48 8.44ZM43.19 7.63C43.95 7.63 44.45 7.97 44.45 7.97L44.45 11.21C44.45 11.90 44.49 12.49 44.51 12.61C44.06 12.91 43.46 13.10 42.95 13.10C41.64 13.10 40.98 11.96 40.98 10.36C40.98 8.69 41.76 7.63 43.19 7.63ZM45.75 3.42L45.47 3.35L43.32 3.56L43.32 3.99L44.45 4.10L44.45 7.24C44.45 7.24 43.95 6.86 43.04 6.86C40.94 6.86 39.62 8.36 39.62 10.88C39.62 12.60 40.66 14.14 42.28 14.14C43.39 14.14 43.97 13.64 44.49 13.17C44.60 13.86 45.07 14.14 45.64 14.14C46.27 14.14 46.70 13.82 46.70 13.82L46.70 13.44L46.27 13.44C45.85 13.44 45.75 13.19 45.75 12.84ZM51.17 13.45C49.94 13.45 49.20 12.29 49.20 10.49C49.20 8.76 49.74 7.55 51.20 7.55C52.43 7.55 53.17 8.71 53.17 10.51C53.17 12.24 52.63 13.45 51.17 13.45ZM51.00 14.14C53.33 14.14 54.50 12.50 54.50 10.35C54.50 8.27 53.33 6.86 51.37 6.86C49.04 6.86 47.87 8.50 47.87 10.65C47.87 12.73 49.04 14.14 51.00 14.14ZM64.48 4.73C65.44 4.73 66.15 4.97 66.44 5.08L66.65 6.94L67.20 6.94L67.31 4.56C67.31 4.56 66.30 4.00 64.48 4.00C61.08 4.00 59.21 6.22 59.21 9.27C59.21 12.73 61.61 14.20 64.44 14.20C66.21 14.20 67.24 13.75 67.24 13.75L67.24 10.36L68.22 10.16L68.22 9.73L64.47 9.73L64.47 10.16L65.87 10.36L65.87 13.30C65.87 13.30 65.38 13.47 64.55 13.47C62.10 13.47 60.63 11.61 60.63 8.81C60.63 6.29 62.15 4.73 64.48 4.73ZM72.60 13.45C71.37 13.45 70.63 12.29 70.63 10.49C70.63 8.76 71.18 7.55 72.63 7.55C73.86 7.55 74.61 8.71 74.61 10.51C74.61 12.24 74.06 13.45 72.60 13.45ZM72.44 14.14C74.76 14.14 75.94 12.50 75.94 10.35C75.94 8.27 74.76 6.86 72.80 6.86C70.48 6.86 69.30 8.50 69.30 10.65C69.30 12.73 70.48 14.14 72.44 14.14ZM83.97 9.37C83.97 7.88 83.19 6.86 81.72 6.86C80.84 6.86 80.08 7.34 79.45 7.83L79.51 7L79.23 6.93L77.07 7.14L77.07 7.57L78.20 7.69L78.20 13.41L77.08 13.57L77.08 14L80.49 14L80.49 13.57L79.51 13.41L79.51 9.70C79.51 8.95 79.45 8.37 79.45 8.37C79.45 8.37 80.22 7.90 81.23 7.90C82.24 7.90 82.67 8.53 82.67 9.69L82.67 13.41L81.69 13.57L81.69 14L85.09 14L85.09 13.57L83.97 13.41ZM89.08 16.80C89.96 16.80 90.61 16.28 90.61 15.65C90.61 14.99 89.99 14.59 89.10 14.73L89.01 14.14L89.17 14.14C90.57 14.14 91.38 13.41 91.38 13.41L91.38 12.94C91.38 12.94 90.64 13.27 89.63 13.27C88.16 13.27 87.36 12.00 87.36 10.26C87.36 9.04 87.93 7.59 89.12 7.59C89.87 7.59 90.37 8.19 91.18 8.30L91.46 7.17C90.80 7.10 90.40 6.86 89.53 6.86C87.44 6.86 86.03 8.47 86.03 10.63C86.03 12.46 86.91 13.82 88.54 14.08L88.12 15.08L88.33 15.26C88.94 15.04 89.63 15.25 89.63 15.64C89.63 15.92 89.38 16.14 88.80 16.14C88.49 16.14 87.98 16.09 87.51 15.93L87.33 16.32C87.82 16.62 88.49 16.80 89.08 16.80ZM96.60 13.17C96.71 13.86 97.17 14.14 97.75 14.14C98.38 14.14 98.81 13.82 98.81 13.82L98.81 13.44L98.38 13.44C97.96 13.44 97.86 13.19 97.86 12.84L97.86 9.48C97.86 7.78 97.22 6.86 95.55 6.86C94.09 6.86 93.00 7.60 93.00 7.60L93.00 8.08C93.00 8.08 94.12 7.76 95.09 7.76C96.36 7.76 96.59 8.34 96.59 9.37L96.59 10.12C96.18 10.12 95.34 10.14 94.68 10.25C93.18 10.51 92.58 11.30 92.58 12.38C92.58 13.31 93.23 14.07 94.37 14.07C95.38 14.07 96.07 13.66 96.60 13.17ZM94.99 13.20C94.23 13.20 93.86 12.78 93.86 12.18C93.86 11.49 94.29 11.06 95.00 10.88C95.82 10.67 96.56 10.68 96.56 10.68L96.56 11.68C96.56 12.28 96.60 12.67 96.60 12.67C96.15 12.94 95.68 13.20 94.99 13.20ZM100.79 13.41L99.67 13.57L99.67 14L103.21 14L103.21 13.57L102.09 13.41L102.09 3.42L101.81 3.35L99.65 3.56L99.65 3.99L100.79 4.13ZM106.76 7L103.54 7L103.54 7.43L104.45 7.62L106.99 14.07L108.02 14L110.39 7.62L111.36 7.43L111.36 7L108.40 7L108.40 7.43L109.45 7.63L108.22 11.31C107.94 12.15 107.77 12.91 107.77 12.91L107.72 12.91C107.72 12.91 107.53 12.11 107.21 11.26L105.84 7.62L106.76 7.43ZM117.82 10.40C118.02 8.13 117.10 6.86 115.15 6.86C113.39 6.86 111.92 8.30 111.92 10.63C111.92 12.67 113.18 14.14 115.19 14.14C116.65 14.14 117.54 13.41 117.54 13.41L117.54 12.94C117.54 12.94 116.70 13.27 115.75 13.27C114.23 13.27 113.29 12.07 113.25 10.40ZM115.09 7.57C116.30 7.57 116.54 8.55 116.55 9.66L113.27 9.74C113.40 8.41 114.07 7.57 115.09 7.57ZM121.76 13.41C120.86 13.41 120.37 12.78 119.41 12.66L119.13 13.83C119.71 13.92 120.41 14.14 121.53 14.14C122.78 14.14 123.97 13.51 123.97 12.18C123.97 9.63 120.33 10.19 120.33 8.41C120.33 7.95 120.64 7.59 121.28 7.59C122.12 7.59 122.57 8.22 123.54 8.34L123.82 7.17C123.23 7.08 122.57 6.86 121.69 6.86C120.30 6.86 119.27 7.62 119.27 8.81C119.27 11.33 122.96 10.89 122.96 12.50C122.96 13.03 122.49 13.41 121.76 13.41Z"></path></g><defs data-v-423bf9ae=""><linearGradient data-v-423bf9ae="" gradientTransform="rotate(25)" id="798a6268-fd80-4efa-b748-20e67e529b99" x1="0%" y1="0%" x2="100%" y2="0%"><stop data-v-423bf9ae="" offset="0%" style="stop-color: rgb(146, 13, 233); stop-opacity: 1;"></stop><stop data-v-423bf9ae="" offset="100%" style="stop-color: rgb(21, 54, 241); stop-opacity: 1;"></stop></linearGradient></defs><g data-v-423bf9ae="" id="4cc740ad-b18a-4558-8b94-3183218a733c" transform="matrix(1.294963886621721,0,0,1.294963886621721,-1.2481943310860544,-19.48344792609595)" stroke="none" fill="url(#798a6268-fd80-4efa-b748-20e67e529b99)"><path d="M7.2 84.7h85.5c3.2 0 5.8-2.6 5.8-5.8v-2.5c0-.5-.2-1-.5-1.4l-4.3-5.3c-.7-.9-1.1-1.9-1.1-3v-43c0-4.7-3.8-8.5-8.5-8.5H15.9c-4.7 0-8.5 3.8-8.5 8.5v42.9c0 1.1-.4 2.2-1.1 3L2 75.1c-.3.4-.5.9-.5 1.4V79c0 3.2 2.6 5.7 5.7 5.7zm52-8.3c0 1.6-1.3 2.9-2.9 2.9H43.8c-1.6 0-2.9-1.3-2.9-2.9v-.6h18.4v.6zM15.9 60.8V23.7H84.1v43.6H15.9v-6.5zm39-27.9l3.9 2.2-13.7 24-3.9-2.2 13.7-24zM38.5 38l-8 8 8 8-3.2 3.2-8-8-3.1-3.2 3.2-3.2 8-8 3.1 3.2zm34.1 4.8l3.2 3.2-3.2 3.2-8 8-3.1-3.2 8-8-8-8 3.2-3.2 7.9 8z"></path></g><!----><g data-v-423bf9ae="" id="69b12328-dedb-4e39-bb3c-3bc3f7518806" fill="#221057" transform="matrix(1.8042124129094164,0,0,1.8042124129094164,144.0418380339858,59.00768525623292)"><path d="M8.76 10.68L8.76 10.68Q8.37 11.86 7.40 12.51L7.40 12.51L7.40 12.51Q6.43 13.16 5.07 13.16L5.07 13.16L5.07 13.16Q3.81 13.16 2.86 12.58L2.86 12.58L2.86 12.58Q1.90 12.00 1.39 10.92L1.39 10.92L1.39 10.92Q0.87 9.84 0.87 8.40L0.87 8.40L0.87 8.40Q0.87 6.96 1.39 5.88L1.39 5.88L1.39 5.88Q1.90 4.80 2.86 4.22L2.86 4.22L2.86 4.22Q3.81 3.64 5.05 3.64L5.05 3.64L5.05 3.64Q7.83 3.64 8.64 5.92L8.64 5.92L7.95 6.24L7.95 6.24Q7.63 5.26 6.92 4.77L6.92 4.77L6.92 4.77Q6.22 4.28 5.10 4.28L5.10 4.28L5.10 4.28Q4.06 4.28 3.27 4.78L3.27 4.78L3.27 4.78Q2.48 5.28 2.04 6.21L2.04 6.21L2.04 6.21Q1.61 7.14 1.61 8.40L1.61 8.40L1.61 8.40Q1.61 9.66 2.04 10.59L2.04 10.59L2.04 10.59Q2.46 11.52 3.24 12.02L3.24 12.02L3.24 12.02Q4.02 12.52 5.07 12.52L5.07 12.52L5.07 12.52Q6.19 12.52 6.97 11.97L6.97 11.97L6.97 11.97Q7.76 11.42 8.06 10.42L8.06 10.42L8.76 10.68ZM21.49 3.64L21.49 3.64Q22.79 3.64 23.75 4.22L23.75 4.22L23.75 4.22Q24.71 4.80 25.23 5.87L25.23 5.87L25.23 5.87Q25.75 6.94 25.75 8.40L25.75 8.40L25.75 8.40Q25.75 9.86 25.23 10.93L25.23 10.93L25.23 10.93Q24.71 12.00 23.75 12.58L23.75 12.58L23.75 12.58Q22.79 13.16 21.49 13.16L21.49 13.16L21.49 13.16Q20.19 13.16 19.23 12.58L19.23 12.58L19.23 12.58Q18.27 12.00 17.75 10.93L17.75 10.93L17.75 10.93Q17.23 9.86 17.23 8.40L17.23 8.40L17.23 8.40Q17.23 6.94 17.75 5.87L17.75 5.87L17.75 5.87Q18.27 4.80 19.23 4.22L19.23 4.22L19.23 4.22Q20.19 3.64 21.49 3.64L21.49 3.64ZM21.49 4.28L21.49 4.28Q20.41 4.28 19.62 4.78L19.62 4.78L19.62 4.78Q18.83 5.28 18.40 6.21L18.40 6.21L18.40 6.21Q17.98 7.14 17.98 8.40L17.98 8.40L17.98 8.40Q17.98 9.66 18.40 10.59L18.40 10.59L18.40 10.59Q18.83 11.52 19.62 12.02L19.62 12.02L19.62 12.02Q20.41 12.52 21.49 12.52L21.49 12.52L21.49 12.52Q22.57 12.52 23.37 12.02L23.37 12.02L23.37 12.02Q24.16 11.52 24.59 10.59L24.59 10.59L24.59 10.59Q25.02 9.66 25.02 8.40L25.02 8.40L25.02 8.40Q25.02 7.14 24.59 6.21L24.59 6.21L24.59 6.21Q24.16 5.28 23.37 4.78L23.37 4.78L23.37 4.78Q22.57 4.28 21.49 4.28L21.49 4.28ZM35.77 3.78L35.77 13.02L35.07 13.02L35.07 3.78L35.77 3.78ZM48.54 3.64L48.54 3.64Q51.14 3.64 52.02 5.68L52.02 5.68L51.42 6.17L51.42 6.17Q51.07 5.18 50.38 4.73L50.38 4.73L50.38 4.73Q49.69 4.28 48.55 4.28L48.55 4.28L48.55 4.28Q47.74 4.28 47.14 4.54L47.14 4.54L47.14 4.54Q46.54 4.79 46.22 5.22L46.22 5.22L46.22 5.22Q45.91 5.66 45.91 6.20L45.91 6.20L45.91 6.20Q45.91 6.73 46.17 7.08L46.17 7.08L46.17 7.08Q46.44 7.43 47.08 7.68L47.08 7.68L47.08 7.68Q47.71 7.92 48.83 8.12L48.83 8.12L48.83 8.12Q50.64 8.43 51.39 9.02L51.39 9.02L51.39 9.02Q52.15 9.60 52.15 10.64L52.15 10.64L52.15 10.64Q52.15 11.38 51.72 11.96L51.72 11.96L51.72 11.96Q51.28 12.53 50.49 12.84L50.49 12.84L50.49 12.84Q49.70 13.16 48.68 13.16L48.68 13.16L48.68 13.16Q47.22 13.16 46.22 12.58L46.22 12.58L46.22 12.58Q45.22 12.00 44.86 10.95L44.86 10.95L45.47 10.47L45.47 10.47Q45.75 11.47 46.60 11.99L46.60 11.99L46.60 11.99Q47.45 12.52 48.69 12.52L48.69 12.52L48.69 12.52Q49.90 12.52 50.66 12.03L50.66 12.03L50.66 12.03Q51.42 11.54 51.42 10.68L51.42 10.68L51.42 10.68Q51.42 9.94 50.80 9.51L50.80 9.51L50.80 9.51Q50.18 9.07 48.64 8.81L48.64 8.81L48.64 8.81Q47.33 8.58 46.58 8.26L46.58 8.26L46.58 8.26Q45.82 7.94 45.49 7.46L45.49 7.46L45.49 7.46Q45.16 6.99 45.16 6.27L45.16 6.27L45.16 6.27Q45.16 5.56 45.58 4.96L45.58 4.96L45.58 4.96Q45.99 4.35 46.75 4.00L46.75 4.00L46.75 4.00Q47.52 3.64 48.54 3.64L48.54 3.64ZM67.56 13.02L66.40 10.12L61.98 10.12L60.83 13.02L60.09 13.02L63.78 3.78L64.61 3.78L68.31 13.02L67.56 13.02ZM62.24 9.48L66.15 9.48L64.54 5.45L64.20 4.47L64.19 4.47L63.85 5.42L62.24 9.48ZM79.77 3.64L79.77 3.64Q82.38 3.64 83.26 5.68L83.26 5.68L82.66 6.17L82.66 6.17Q82.31 5.18 81.61 4.73L81.61 4.73L81.61 4.73Q80.92 4.28 79.79 4.28L79.79 4.28L79.79 4.28Q78.97 4.28 78.37 4.54L78.37 4.54L78.37 4.54Q77.77 4.79 77.46 5.22L77.46 5.22L77.46 5.22Q77.14 5.66 77.14 6.20L77.14 6.20L77.14 6.20Q77.14 6.73 77.41 7.08L77.41 7.08L77.41 7.08Q77.67 7.43 78.31 7.68L78.31 7.68L78.31 7.68Q78.95 7.92 80.07 8.12L80.07 8.12L80.07 8.12Q81.87 8.43 82.63 9.02L82.63 9.02L82.63 9.02Q83.38 9.60 83.38 10.64L83.38 10.64L83.38 10.64Q83.38 11.38 82.95 11.96L82.95 11.96L82.95 11.96Q82.52 12.53 81.73 12.84L81.73 12.84L81.73 12.84Q80.93 13.16 79.91 13.16L79.91 13.16L79.91 13.16Q78.46 13.16 77.46 12.58L77.46 12.58L77.46 12.58Q76.45 12.00 76.09 10.95L76.09 10.95L76.71 10.47L76.71 10.47Q76.99 11.47 77.83 11.99L77.83 11.99L77.83 11.99Q78.68 12.52 79.93 12.52L79.93 12.52L79.93 12.52Q81.13 12.52 81.89 12.03L81.89 12.03L81.89 12.03Q82.66 11.54 82.66 10.68L82.66 10.68L82.66 10.68Q82.66 9.94 82.03 9.51L82.03 9.51L82.03 9.51Q81.41 9.07 79.87 8.81L79.87 8.81L79.87 8.81Q78.57 8.58 77.81 8.26L77.81 8.26L77.81 8.26Q77.06 7.94 76.73 7.46L76.73 7.46L76.73 7.46Q76.40 6.99 76.40 6.27L76.40 6.27L76.40 6.27Q76.40 5.56 76.81 4.96L76.81 4.96L76.81 4.96Q77.22 4.35 77.99 4.00L77.99 4.00L77.99 4.00Q78.75 3.64 79.77 3.64L79.77 3.64ZM109.82 13.02L108.65 10.12L104.23 10.12L103.08 13.02L102.34 13.02L106.04 3.78L106.86 3.78L110.56 13.02L109.82 13.02ZM104.50 9.48L108.40 9.48L106.79 5.45L106.46 4.47L106.44 4.47L106.11 5.42L104.50 9.48ZM119.98 12.38L125.52 12.38L125.52 13.02L119.28 13.02L119.28 3.78L119.98 3.78L119.98 12.38ZM134.99 12.38L140.83 12.38L140.83 13.02L134.29 13.02L134.29 3.78L140.60 3.78L140.60 4.42L134.99 4.42L134.99 7.99L139.43 7.99L139.43 8.65L134.99 8.65L134.99 12.38ZM156.14 13.02L154.98 10.12L150.56 10.12L149.41 13.02L148.67 13.02L152.36 3.78L153.19 3.78L156.88 13.02L156.14 13.02ZM150.82 9.48L154.73 9.48L153.12 5.45L152.78 4.47L152.77 4.47L152.43 5.42L150.82 9.48ZM170.58 3.78L170.58 4.42L167.20 4.42L167.20 13.02L166.50 13.02L166.50 4.42L163.13 4.42L163.13 3.78L170.58 3.78ZM183.11 0.55L183.93 0.55L182.77 2.62L182.20 2.62L183.11 0.55ZM182.52 3.64L182.52 3.64Q183.82 3.64 184.78 4.22L184.78 4.22L184.78 4.22Q185.74 4.80 186.26 5.87L186.26 5.87L186.26 5.87Q186.77 6.94 186.77 8.40L186.77 8.40L186.77 8.40Q186.77 9.86 186.26 10.93L186.26 10.93L186.26 10.93Q185.74 12.00 184.78 12.58L184.78 12.58L184.78 12.58Q183.82 13.16 182.52 13.16L182.52 13.16L182.52 13.16Q181.22 13.16 180.26 12.58L180.26 12.58L180.26 12.58Q179.30 12.00 178.78 10.93L178.78 10.93L178.78 10.93Q178.26 9.86 178.26 8.40L178.26 8.40L178.26 8.40Q178.26 6.94 178.78 5.87L178.78 5.87L178.78 5.87Q179.30 4.80 180.26 4.22L180.26 4.22L180.26 4.22Q181.22 3.64 182.52 3.64L182.52 3.64ZM182.52 4.28L182.52 4.28Q181.44 4.28 180.65 4.78L180.65 4.78L180.65 4.78Q179.86 5.28 179.43 6.21L179.43 6.21L179.43 6.21Q179.00 7.14 179.00 8.40L179.00 8.40L179.00 8.40Q179.00 9.66 179.43 10.59L179.43 10.59L179.43 10.59Q179.86 11.52 180.65 12.02L180.65 12.02L180.65 12.02Q181.44 12.52 182.52 12.52L182.52 12.52L182.52 12.52Q183.60 12.52 184.39 12.02L184.39 12.02L184.39 12.02Q185.19 11.52 185.62 10.59L185.62 10.59L185.62 10.59Q186.05 9.66 186.05 8.40L186.05 8.40L186.05 8.40Q186.05 7.14 185.62 6.21L185.62 6.21L185.62 6.21Q185.19 5.28 184.39 4.78L184.39 4.78L184.39 4.78Q183.60 4.28 182.52 4.28L182.52 4.28ZM203.04 13.02L202.22 13.02L199.57 9.02L199.53 9.02L196.80 9.02L196.80 13.02L196.10 13.02L196.10 3.78L199.53 3.78L199.53 3.78Q200.91 3.78 201.73 4.48L201.73 4.48L201.73 4.48Q202.55 5.18 202.55 6.40L202.55 6.40L202.55 6.40Q202.55 7.41 201.96 8.07L201.96 8.07L201.96 8.07Q201.38 8.74 200.35 8.93L200.35 8.93L203.04 13.02ZM196.80 4.42L196.80 8.36L199.51 8.36L199.51 8.36Q200.63 8.36 201.23 7.85L201.23 7.85L201.23 7.85Q201.82 7.35 201.82 6.40L201.82 6.40L201.82 6.40Q201.82 5.45 201.23 4.93L201.23 4.93L201.23 4.93Q200.63 4.42 199.51 4.42L199.51 4.42L196.80 4.42ZM212.76 3.78L212.76 13.02L212.06 13.02L212.06 3.78L212.76 3.78ZM228.96 13.02L227.79 10.12L223.37 10.12L222.22 13.02L221.48 13.02L225.18 3.78L226.00 3.78L229.70 13.02L228.96 13.02ZM223.64 9.48L227.54 9.48L225.93 5.45L225.60 4.47L225.58 4.47L225.25 5.42L223.64 9.48ZM241.16 3.64L241.16 3.64Q243.77 3.64 244.65 5.68L244.65 5.68L244.05 6.17L244.05 6.17Q243.70 5.18 243.00 4.73L243.00 4.73L243.00 4.73Q242.31 4.28 241.18 4.28L241.18 4.28L241.18 4.28Q240.37 4.28 239.76 4.54L239.76 4.54L239.76 4.54Q239.16 4.79 238.85 5.22L238.85 5.22L238.85 5.22Q238.53 5.66 238.53 6.20L238.53 6.20L238.53 6.20Q238.53 6.73 238.80 7.08L238.80 7.08L238.80 7.08Q239.06 7.43 239.70 7.68L239.70 7.68L239.70 7.68Q240.34 7.92 241.46 8.12L241.46 8.12L241.46 8.12Q243.26 8.43 244.02 9.02L244.02 9.02L244.02 9.02Q244.78 9.60 244.78 10.64L244.78 10.64L244.78 10.64Q244.78 11.38 244.34 11.96L244.34 11.96L244.34 11.96Q243.91 12.53 243.12 12.84L243.12 12.84L243.12 12.84Q242.33 13.16 241.30 13.16L241.30 13.16L241.30 13.16Q239.85 13.16 238.85 12.58L238.85 12.58L238.85 12.58Q237.85 12.00 237.48 10.95L237.48 10.95L238.10 10.47L238.10 10.47Q238.38 11.47 239.22 11.99L239.22 11.99L239.22 11.99Q240.07 12.52 241.32 12.52L241.32 12.52L241.32 12.52Q242.52 12.52 243.28 12.03L243.28 12.03L243.28 12.03Q244.05 11.54 244.05 10.68L244.05 10.68L244.05 10.68Q244.05 9.94 243.42 9.51L243.42 9.51L243.42 9.51Q242.80 9.07 241.26 8.81L241.26 8.81L241.26 8.81Q239.96 8.58 239.20 8.26L239.20 8.26L239.20 8.26Q238.45 7.94 238.12 7.46L238.12 7.46L238.12 7.46Q237.79 6.99 237.79 6.27L237.79 6.27L237.79 6.27Q237.79 5.56 238.20 4.96L238.20 4.96L238.20 4.96Q238.62 4.35 239.38 4.00L239.38 4.00L239.38 4.00Q240.14 3.64 241.16 3.64L241.16 3.64Z"></path></g></svg>